<svg width="29" height="30" viewBox="0 0 29 30" fill="none" xmlns="http://www.w3.org/2000/svg">
<path d="M24.5497 5.19447C22.7014 4.31711 20.7193 3.67072 18.6469 3.3005C18.6091 3.29336 18.5714 3.31121 18.552 3.34693C18.2971 3.81595 18.0147 4.42782 17.817 4.90875C15.588 4.56354 13.3704 4.56354 11.1871 4.90875C10.9894 4.41713 10.6968 3.81595 10.4407 3.34693C10.4213 3.31241 10.3836 3.29455 10.3458 3.3005C8.27456 3.66954 6.29247 4.31593 4.44296 5.19447C4.42695 5.20161 4.41323 5.21352 4.40412 5.22899C0.644515 11.0394 -0.385398 16.7071 0.119843 22.3044C0.122129 22.3318 0.136989 22.358 0.157564 22.3747C2.63804 24.2591 5.04081 25.4031 7.39896 26.1614C7.4367 26.1733 7.47669 26.159 7.50071 26.1269C8.05853 25.3388 8.55578 24.5079 8.98212 23.6341C9.00728 23.5829 8.98326 23.5222 8.93184 23.502C8.14312 23.1925 7.3921 22.8151 6.66967 22.3866C6.61253 22.3521 6.60796 22.2675 6.66052 22.227C6.81255 22.1092 6.96462 21.9866 7.10978 21.8628C7.13604 21.8402 7.17264 21.8354 7.20352 21.8497C11.9496 24.0913 17.0877 24.0913 21.7777 21.8497C21.8086 21.8342 21.8452 21.839 21.8726 21.8616C22.0178 21.9854 22.1698 22.1092 22.323 22.227C22.3756 22.2675 22.3722 22.3521 22.315 22.3866C21.5926 22.8234 20.8416 23.1925 20.0517 23.5008C20.0003 23.521 19.9774 23.5829 20.0026 23.6341C20.4381 24.5067 20.9353 25.3376 21.4828 26.1257C21.5057 26.159 21.5468 26.1733 21.5846 26.1614C23.9542 25.4031 26.3569 24.2591 28.8374 22.3747C28.8591 22.358 28.8728 22.333 28.8751 22.3056C29.4798 15.8345 27.8623 10.2133 24.5874 5.23017C24.5794 5.21352 24.5657 5.20161 24.5497 5.19447ZM9.69086 18.8962C8.26198 18.8962 7.08462 17.5392 7.08462 15.8726C7.08462 14.206 8.23915 12.8489 9.69086 12.8489C11.154 12.8489 12.3199 14.2179 12.2971 15.8726C12.2971 17.5392 11.1425 18.8962 9.69086 18.8962ZM19.327 18.8962C17.8981 18.8962 16.7208 17.5392 16.7208 15.8726C16.7208 14.206 17.8753 12.8489 19.327 12.8489C20.7901 12.8489 21.9561 14.2179 21.9332 15.8726C21.9332 17.5392 20.7901 18.8962 19.327 18.8962Z" fill="white"/>
</svg>
