<svg width="29" height="30" viewBox="0 0 29 30" fill="none" xmlns="http://www.w3.org/2000/svg">
<g clip-path="url(#clip0_14_198)">
<path d="M14.5 0C6.49194 0 0 6.7158 0 15C0 22.0344 4.68176 27.9372 10.9974 29.5584V19.584H8.00748V15H10.9974V13.0248C10.9974 7.9194 13.231 5.553 18.0763 5.553C18.995 5.553 20.5801 5.7396 21.2286 5.9256V10.0806C20.8864 10.0434 20.2919 10.0248 19.5535 10.0248C17.1761 10.0248 16.2574 10.9566 16.2574 13.3788V15H20.9937L20.1799 19.584H16.2574V29.8902C23.4372 28.9932 29.0006 22.6692 29.0006 15C29 6.7158 22.5081 0 14.5 0Z" fill="white"/>
</g>
<defs>
<clipPath id="clip0_14_198">
<rect width="29" height="30" fill="white"/>
</clipPath>
</defs>
</svg>
