<svg width="29" height="30" viewBox="0 0 29 30" fill="none" xmlns="http://www.w3.org/2000/svg">
<g clip-path="url(#clip0_14_196)">
<path d="M14.5 2.70117C18.3742 2.70117 18.833 2.71875 20.3566 2.78906C21.7727 2.85352 22.5373 3.09961 23.0471 3.30469C23.7211 3.57422 24.2082 3.90234 24.7123 4.42383C25.2221 4.95117 25.5336 5.44922 25.7941 6.14648C25.9924 6.67383 26.2303 7.4707 26.2926 8.92969C26.3605 10.5117 26.3775 10.9863 26.3775 14.9883C26.3775 18.9961 26.3605 19.4707 26.2926 21.0469C26.2303 22.5117 25.9924 23.3027 25.7941 23.8301C25.5336 24.5273 25.2164 25.0313 24.7123 25.5527C24.2025 26.0801 23.7211 26.4023 23.0471 26.6719C22.5373 26.877 21.767 27.123 20.3566 27.1875C18.8273 27.2578 18.3686 27.2754 14.5 27.2754C10.6258 27.2754 10.167 27.2578 8.64336 27.1875C7.22734 27.123 6.4627 26.877 5.95293 26.6719C5.27891 26.4023 4.7918 26.0742 4.2877 25.5527C3.77793 25.0254 3.46641 24.5273 3.20586 23.8301C3.00762 23.3027 2.76973 22.5059 2.70742 21.0469C2.63945 19.4648 2.62246 18.9902 2.62246 14.9883C2.62246 10.9805 2.63945 10.5059 2.70742 8.92969C2.76973 7.46484 3.00762 6.67383 3.20586 6.14648C3.46641 5.44922 3.78359 4.94531 4.2877 4.42383C4.79746 3.89648 5.27891 3.57422 5.95293 3.30469C6.4627 3.09961 7.23301 2.85352 8.64336 2.78906C10.167 2.71875 10.6258 2.70117 14.5 2.70117ZM14.5 0C10.5635 0 10.0707 0.0175781 8.52442 0.0878906C6.98379 0.158203 5.92461 0.416016 5.00703 0.785156C4.04981 1.17187 3.23984 1.68164 2.43555 2.51953C1.62559 3.35156 1.13281 4.18945 0.758984 5.17383C0.402148 6.12891 0.15293 7.21875 0.084961 8.8125C0.0169922 10.418 0 10.9277 0 15C0 19.0723 0.0169922 19.582 0.084961 21.1816C0.15293 22.7754 0.402148 23.8711 0.758984 24.8203C1.13281 25.8105 1.62559 26.6484 2.43555 27.4805C3.23984 28.3125 4.04981 28.8281 5.00137 29.209C5.92461 29.5781 6.97813 29.8359 8.51875 29.9062C10.065 29.9766 10.5578 29.9941 14.4943 29.9941C18.4309 29.9941 18.9236 29.9766 20.4699 29.9062C22.0105 29.8359 23.0697 29.5781 23.9873 29.209C24.9389 28.8281 25.7488 28.3125 26.5531 27.4805C27.3574 26.6484 27.8559 25.8105 28.224 24.8262C28.5809 23.8711 28.8301 22.7813 28.8981 21.1875C28.966 19.5879 28.983 19.0781 28.983 15.0059C28.983 10.9336 28.966 10.4238 28.8981 8.82422C28.8301 7.23047 28.5809 6.13477 28.224 5.18555C27.8672 4.18945 27.3744 3.35156 26.5645 2.51953C25.7602 1.6875 24.9502 1.17188 23.9986 0.791016C23.0754 0.421875 22.0219 0.164062 20.4813 0.09375C18.9293 0.0175781 18.4365 0 14.5 0Z" fill="white"/>
<path d="M14.5 7.29492C10.3879 7.29492 7.05176 10.7461 7.05176 15C7.05176 19.2539 10.3879 22.7051 14.5 22.7051C18.6121 22.7051 21.9482 19.2539 21.9482 15C21.9482 10.7461 18.6121 7.29492 14.5 7.29492ZM14.5 19.998C11.8322 19.998 9.66855 17.7598 9.66855 15C9.66855 12.2402 11.8322 10.002 14.5 10.002C17.1678 10.002 19.3314 12.2402 19.3314 15C19.3314 17.7598 17.1678 19.998 14.5 19.998Z" fill="white"/>
<path d="M23.9816 6.99018C23.9816 7.98627 23.2 8.78901 22.2428 8.78901C21.2799 8.78901 20.5039 7.98041 20.5039 6.99018C20.5039 5.99408 21.2855 5.19135 22.2428 5.19135C23.2 5.19135 23.9816 5.99994 23.9816 6.99018Z" fill="white"/>
</g>
<defs>
<clipPath id="clip0_14_196">
<rect width="29" height="30" fill="white"/>
</clipPath>
</defs>
</svg>
