<svg width="29" height="30" viewBox="0 0 29 30" fill="none" xmlns="http://www.w3.org/2000/svg">
<g clip-path="url(#clip0_14_195)">
<path d="M26.8533 0H2.14102C0.957227 0 0 0.966797 0 2.16211V27.832C0 29.0273 0.957227 30 2.14102 30H26.8533C28.0371 30 29 29.0273 29 27.8379V2.16211C29 0.966797 28.0371 0 26.8533 0ZM8.60371 25.5645H4.29902V11.2441H8.60371V25.5645ZM6.45137 9.29297C5.06934 9.29297 3.95352 8.13867 3.95352 6.71484C3.95352 5.29102 5.06934 4.13672 6.45137 4.13672C7.82773 4.13672 8.94355 5.29102 8.94355 6.71484C8.94355 8.13281 7.82773 9.29297 6.45137 9.29297ZM24.7123 25.5645H20.4133V18.6035C20.4133 16.9453 20.385 14.8066 18.176 14.8066C15.9387 14.8066 15.5988 16.6172 15.5988 18.4863V25.5645H11.3055V11.2441H15.4289V13.2012H15.4855C16.0576 12.0762 17.4623 10.8867 19.5523 10.8867C23.908 10.8867 24.7123 13.8516 24.7123 17.707V25.5645Z" fill="white"/>
</g>
<defs>
<clipPath id="clip0_14_195">
<rect width="29" height="30" fill="white"/>
</clipPath>
</defs>
</svg>
