<svg width="29" height="30" viewBox="0 0 29 30" fill="none" xmlns="http://www.w3.org/2000/svg">
<path d="M28.7111 9.00006C28.7111 9.00006 28.4279 6.9317 27.5557 6.0235C26.4512 4.82819 25.2164 4.82233 24.65 4.75201C20.5945 4.44733 14.5057 4.44733 14.5057 4.44733H14.4943C14.4943 4.44733 8.40547 4.44733 4.35 4.75201C3.78359 4.82233 2.54883 4.82819 1.44434 6.0235C0.57207 6.9317 0.294531 9.00006 0.294531 9.00006C0.294531 9.00006 0 11.4317 0 13.8575V16.1309C0 18.5567 0.288867 20.9883 0.288867 20.9883C0.288867 20.9883 0.57207 23.0567 1.43867 23.9649C2.54316 25.1602 3.99316 25.1192 4.63887 25.2481C6.96113 25.4766 14.5 25.5469 14.5 25.5469C14.5 25.5469 20.5945 25.5352 24.65 25.2364C25.2164 25.1661 26.4512 25.1602 27.5557 23.9649C28.4279 23.0567 28.7111 20.9883 28.7111 20.9883C28.7111 20.9883 29 18.5626 29 16.1309V13.8575C29 11.4317 28.7111 9.00006 28.7111 9.00006ZM11.5037 18.8907V10.459L19.3371 14.6895L11.5037 18.8907Z" fill="white"/>
</svg>
